<svg width="166" height="176" viewBox="0 0 166 176" fill="none" xmlns="http://www.w3.org/2000/svg">
<g filter="url(#filter0_d_1824_5958)">
<rect x="6" y="3" width="154" height="164" rx="20" fill="white"/>
</g>
<circle cx="61.5" cy="74.5" r="28.5" fill="#20CAFE" fill-opacity="0.8"/>
<circle cx="43.5" cy="95.5" r="10.5" fill="#FFDE2F"/>
<path fill-rule="evenodd" clip-rule="evenodd" d="M89.8915 100.788C87.9282 100.821 86.0207 100.133 84.5287 98.8546L79.7826 94.7721C78.6571 93.808 78.5251 92.1125 79.4877 90.9851C80.4503 89.8578 82.143 89.7255 83.2684 90.6897L88.0145 94.7721C88.9991 95.5722 90.4085 95.5722 91.3931 94.7721L116.33 75.5685L65.3835 75.3805C63.9026 75.3805 62.7021 74.178 62.7021 72.6947C62.7021 71.2114 63.9026 70.0089 65.3835 70.0089H116.33C118.737 69.8706 120.94 71.3576 121.715 73.6438C122.49 75.93 121.648 78.4534 119.655 79.8121L94.718 99.0157C93.346 100.119 91.6506 100.742 89.8915 100.788ZM122 110.767V88.7206C122 87.1986 120.78 85.9647 119.276 85.9647C117.771 85.9647 116.551 87.1986 116.551 88.7206V110.767C116.551 112.289 115.332 113.523 113.827 113.523H75.6889C74.1844 113.523 72.9647 114.757 72.9647 116.279C72.9647 117.801 74.1844 119.035 75.6889 119.035H113.827C118.341 119.035 122 115.333 122 110.767ZM78.6667 83.1137C78.6667 81.5392 77.4541 80.2628 75.9583 80.2628H59.7083C58.2126 80.2628 57 81.5392 57 83.1137C57 84.6882 58.2126 85.9646 59.7083 85.9646H75.9583C77.4541 85.9646 78.6667 84.6882 78.6667 83.1137ZM78.6669 105.921C78.6669 104.347 77.5437 103.07 76.1581 103.07H68.6318C67.2463 103.07 66.123 104.347 66.123 105.921C66.123 107.496 67.2463 108.772 68.6318 108.772H76.1581C77.5437 108.772 78.6669 107.496 78.6669 105.921Z" fill="#2C4097"/>
<defs>
<filter id="filter0_d_1824_5958" x="0" y="0" width="166" height="176" filterUnits="userSpaceOnUse" color-interpolation-filters="sRGB">
<feFlood flood-opacity="0" result="BackgroundImageFix"/>
<feColorMatrix in="SourceAlpha" type="matrix" values="0 0 0 0 0 0 0 0 0 0 0 0 0 0 0 0 0 0 127 0" result="hardAlpha"/>
<feOffset dy="3"/>
<feGaussianBlur stdDeviation="3"/>
<feComposite in2="hardAlpha" operator="out"/>
<feColorMatrix type="matrix" values="0 0 0 0 0 0 0 0 0 0 0 0 0 0 0 0 0 0 0.25 0"/>
<feBlend mode="normal" in2="BackgroundImageFix" result="effect1_dropShadow_1824_5958"/>
<feBlend mode="normal" in="SourceGraphic" in2="effect1_dropShadow_1824_5958" result="shape"/>
</filter>
</defs>
</svg>
